<svg width="1020" height="42" viewBox="0 0 1020 42" fill="none" xmlns="http://www.w3.org/2000/svg">
<path d="M4.64844 7.78125L8.75 18.6797L12.8418 7.78125H16.0352V22H13.5742V17.3125L13.8184 11.043L9.61914 22H7.85156L3.66211 11.0527L3.90625 17.3125V22H1.44531V7.78125H4.64844ZM29.3652 7.78125V17.2832C29.3652 18.7936 28.8802 19.9915 27.9102 20.877C26.9466 21.7559 25.6608 22.1953 24.0527 22.1953C22.4251 22.1953 21.1328 21.7624 20.1758 20.8965C19.2188 20.0241 18.7402 18.8164 18.7402 17.2734V7.78125H21.2012V17.293C21.2012 18.2435 21.4421 18.9694 21.9238 19.4707C22.4056 19.972 23.1152 20.2227 24.0527 20.2227C25.9538 20.2227 26.9043 19.2201 26.9043 17.2148V7.78125H29.3652ZM39.4434 18.3379C39.4434 17.7129 39.222 17.2311 38.7793 16.8926C38.3431 16.554 37.5521 16.2122 36.4062 15.8672C35.2604 15.5221 34.349 15.138 33.6719 14.7148C32.3763 13.901 31.7285 12.8398 31.7285 11.5312C31.7285 10.3854 32.194 9.44141 33.125 8.69922C34.0625 7.95703 35.2767 7.58594 36.7676 7.58594C37.7572 7.58594 38.6393 7.76823 39.4141 8.13281C40.1888 8.4974 40.7975 9.01823 41.2402 9.69531C41.6829 10.3659 41.9043 11.1113 41.9043 11.9316H39.4434C39.4434 11.1895 39.209 10.61 38.7402 10.1934C38.278 9.77018 37.6139 9.55859 36.748 9.55859C35.9408 9.55859 35.3125 9.73112 34.8633 10.0762C34.4206 10.4212 34.1992 10.903 34.1992 11.5215C34.1992 12.0423 34.4401 12.4785 34.9219 12.8301C35.4036 13.1751 36.1979 13.5137 37.3047 13.8457C38.4115 14.1712 39.3001 14.5456 39.9707 14.9688C40.6413 15.3854 41.1328 15.8672 41.4453 16.4141C41.7578 16.9544 41.9141 17.5892 41.9141 18.3184C41.9141 19.5033 41.4583 20.4473 40.5469 21.1504C39.6419 21.847 38.4115 22.1953 36.8555 22.1953C35.8268 22.1953 34.8796 22.0065 34.0137 21.6289C33.1543 21.2448 32.4837 20.7174 32.002 20.0469C31.5267 19.3763 31.2891 18.5951 31.2891 17.7031H33.7598C33.7598 18.5104 34.0267 19.1354 34.5605 19.5781C35.0944 20.0208 35.8594 20.2422 36.8555 20.2422C37.7148 20.2422 38.3594 20.0697 38.7891 19.7246C39.2253 19.373 39.4434 18.9108 39.4434 18.3379ZM46.6895 22H44.2285V7.78125H46.6895V22ZM60.5762 17.3711C60.4329 18.888 59.873 20.0729 58.8965 20.9258C57.9199 21.7721 56.6211 22.1953 55 22.1953C53.8672 22.1953 52.8678 21.9284 52.002 21.3945C51.1426 20.8542 50.4785 20.0892 50.0098 19.0996C49.541 18.11 49.2969 16.9609 49.2773 15.6523V14.3242C49.2773 12.9831 49.515 11.8014 49.9902 10.7793C50.4655 9.75716 51.1458 8.9694 52.0312 8.41602C52.9232 7.86263 53.9518 7.58594 55.1172 7.58594C56.6862 7.58594 57.9492 8.01237 58.9062 8.86523C59.8633 9.7181 60.4199 10.9225 60.5762 12.4785H58.1152C57.998 11.4564 57.6986 10.7207 57.2168 10.2715C56.7415 9.81576 56.0417 9.58789 55.1172 9.58789C54.043 9.58789 53.2161 9.98177 52.6367 10.7695C52.0638 11.5508 51.7708 12.6999 51.7578 14.2168V15.4766C51.7578 17.013 52.0312 18.1849 52.5781 18.9922C53.1315 19.7995 53.9388 20.2031 55 20.2031C55.9701 20.2031 56.6992 19.985 57.1875 19.5488C57.6758 19.1126 57.985 18.3867 58.1152 17.3711H60.5762Z" fill="black"/>
<line y1="39" x2="1020" y2="39" stroke="#F20A0A" stroke-width="6"/>
<rect x="980" width="40" height="7.59182" fill="#C4C4C4"/>
<rect x="980" y="11.7041" width="40" height="7.59182" fill="#C4C4C4"/>
<rect x="980" y="23.4082" width="40" height="7.59182" fill="#C4C4C4"/>
<rect x="932" width="20" height="7.83156" fill="#222222"/>
<rect x="954" width="20" height="7.83156" fill="#222222"/>
<rect x="932" y="11.5842" width="20" height="7.83156" fill="#222222"/>
<rect x="954" y="11.5842" width="20" height="7.83156" fill="#222222"/>
<rect x="932" y="23.1685" width="20" height="7.83156" fill="#222222"/>
<rect x="954" y="23.1685" width="20" height="7.83156" fill="#222222"/>
</svg>
